<svg id="Lego-guy" xmlns="http://www.w3.org/2000/svg" width="500" height="500" viewBox="0 0 500 500"><title>lego_guy</title><g id="outlines"><path d="M160,319.8c.5-4.79,1-9.42,1.49-14.28l135.37,33c-.56,4.57-1.11,9-1.68,13.58Zm135.68,19.45-96.57-23.52c-1.21,4.11-1.21,4.11,2.32,5.71a210.65,210.65,0,0,0,32.2,11c17.13,4.6,34.5,8,52,10.9,3.1.51,6.22.91,9.47,1.38C295.33,342.74,295.52,341.09,295.72,339.25ZM196.66,327.5l97.6,23.3c.18-1,.35-1.81.44-2.6s.11-1.57.16-2.37c-33.12-5.47-65.94-11.17-96.86-24.68Zm-13.08-3.13.86-5.71L162,310.61c-.27,2.68-.56,5.48-.85,8.42Zm1.78-12-22.7-5.49c-.81,1.63-.48,2.49,1,3,5.84,2.12,11.64,4.32,17.47,6.43a27,27,0,0,0,3.53.77C184.92,315.36,185.12,314,185.36,312.36Zm6.91,1.67c-.69,4.05-1.36,7.93-2,11.93l5.45,1.27L198,315.5Zm-5.91-1.37-1.74,11.95,4.61,1c.7-4.09,1.34-7.91,2-11.84Z"/><path d="M202.8,400.05c-6.41-1.61-12.3-3.1-18.2-4.57-5.11-1.28-10.26-2.44-15.33-3.88a10.75,10.75,0,0,1-4-2.5c-1.46-1.3-2.62-2.93-3.95-4.37a4.49,4.49,0,0,1-1.06-4.51c1.11-4.32,2.17-8.66,3.25-13,.14-.57.22-1.17.36-1.94-3.11-.8-6.08-1.66-9.1-2.31a5.07,5.07,0,0,1-3.7-2.85c-2.79-5.49-3.39-11.37-3-17.39a69.08,69.08,0,0,1,3.74-18c.23-.67-.19-1.55-.3-2.33a21.26,21.26,0,0,1-.58-4.29c.24-4,.68-8,1.11-11.93.12-1.08-.24-1.53-1.23-1.93-3.86-1.53-4.36-2.58-3.31-6.69,2.26-8.9,4.56-17.79,6.84-26.69l.57.66c-1.71,1.31-3.46,2.58-5.13,3.94a16.18,16.18,0,0,1-10,4.07c-4.05.08-6.31-2.29-5.51-6.28a25.88,25.88,0,0,1,2.58-6.31c1.16-2.29,2.64-4.41,3.84-6.68a6.18,6.18,0,0,0-.26-6.2c-4-7.23-10.91-8.82-18.13-6.5a3.08,3.08,0,0,0-1.41,1.55c-2,4.13-4,8.28-6,12.43-2.11,4.41-6.64,5-9.68,1.07-2.87-3.72-4.06-8.14-2.65-12.65a123.14,123.14,0,0,1,6.13-15.84c2.54-5.37,5.74-10.42,8.6-15.64a19,19,0,0,1,6.8-6.83,2.85,2.85,0,0,0,1.22-2A19.48,19.48,0,0,1,128.6,199c4.58-7.51,8.68-15.32,13.37-22.76,6.11-9.7,19.3-18.39,34.67-15.34.51.1,1,.18,1.65.28-1.26-2.84-2.49-5.51-3.63-8.23a13.5,13.5,0,0,1,.33-11.78,5,5,0,0,0,.23-1.92c.12-2.89.23-5.77.31-8.66a5,5,0,0,0-.22-1.94c-1.38-3.58-2.34-7.21-1.83-11.1a2.45,2.45,0,0,0-.23-1.36c-1.4-2.76-1.51-5.68-1.46-8.71.08-5,0-10-.16-15-.25-9.88,2.81-18,12.08-22.82a4.35,4.35,0,0,0,1.54-2.21c3.21-8,6.69-15.9,12.37-22.49a47.21,47.21,0,0,1,7.68-6.51c2.48-1.87,5.25-3.35,7.76-5.18,4-2.95,8.65-4.42,13.35-5.71,10.28-2.81,20.66-5.29,31.4-4.62a201,201,0,0,1,20.11,2.57A22.28,22.28,0,0,1,290,31.7a20.85,20.85,0,0,0,9.25,5.19,12.52,12.52,0,0,1,5.95,4.28c3.43,4.43,6.42,9.21,9.52,13.89a33.07,33.07,0,0,0,7,8.25A27.51,27.51,0,0,1,332.51,85c.18,7.11-.15,14.22-.26,21.34a3.42,3.42,0,0,1-.21,1.59c-1.71,2.79-.91,5.7-.67,8.63a52.17,52.17,0,0,1,0,7.29c-.3,5.53-.35,11,1.16,16.44,1.25,4.49.46,8.88-1.46,13.06-3.47,7.56-7,15.09-10.55,22.77,6.33,6,7.39,13.95,7.28,22.28,3.26.89,6.51,1.57,9.61,2.67,16.75,5.89,30.25,15.86,38.9,31.7,3.88,7.11,5.66,14.88,6.69,22.85,1.12,8.66,2.2,17.32,3.36,26a2.89,2.89,0,0,0,1.17,1.71c9.18,6.26,11.84,19.32,9.71,27.53-2.33,9-4.6,17.95-7,26.89a20.7,20.7,0,0,1-2.27,5.4c-3.25,5.23-10,4.89-12.67-.7-.84-1.76-.81-3.92-1.29-5.87a13.22,13.22,0,0,0-1.39-4.31c-3.18-4.61-7.69-7.06-13.48-7.58-1.26,4.81-2.53,9.56-3.74,14.32-1.61,6.33-5.37,8.43-11.64,6.18-6.63-2.37-9.53-7.65-10.35-14.28-.69-5.63.47-11,2.17-16.39q2.9-9.18,5.62-18.42a2.6,2.6,0,0,0-.24-2.15c-5.65-5.38-7.73-12.4-9.23-19.71a20.46,20.46,0,0,0-.83-3.12c-.1-.29-.75-.37-1.45-.68,0,.93,0,1.57,0,2.21.18,6.51.77,13,.41,19.51A49.29,49.29,0,0,1,327,305.28a123.73,123.73,0,0,1-7,16.19A34.55,34.55,0,0,0,316.34,334a323.78,323.78,0,0,1-10.76,54.9q-12.18,42.28-24.33,84.58c-1,3.34-2.54,4.27-5.89,3.44l-70.29-17.39c-3.26-.81-3.95-1.63-4.06-5.07q-.57-17.58-1-35.17c0-.74,0-1.49,0-2.23C199.5,411.24,199.22,405.49,202.8,400.05ZM131,203.19c-.4.52-1,1-1.15,1.57-1,4.53-1.26,9,1.71,13,3.87,5.25,9.38,7.87,15.47,9.37,5.08,1.26,10.28,1.61,15.07-.92,2.11-1.12,3.71-1.6,5.49.22.07.07.25,0,.51.05l.46-1.78c-14-3-28.25-15.76-28.25-25.06,5.14,13.26,15.24,20.44,28.72,23.73l.53-1.49c2.82-8.11,5.46-16.28,8.5-24.3,3.15-8.33,6.19-16.77,12-23.65-1.87-2.06-3.72-4.13-5.61-6.16a4,4,0,0,0-1.3-.93c-16.06-7.1-30.9.3-38.14,11.78-4.66,7.37-8.85,15-13.23,22.59a15.25,15.25,0,0,0-.81,2ZM350,277.92c.93,2.68,1.86,5.36,2.87,8.29,10.42-.93,20.8-1.84,27.75-11.53a1.94,1.94,0,0,1-.28,1.44,39.9,39.9,0,0,1-5,5A28.39,28.39,0,0,1,363.05,286c-3.3.59-6.64.93-10,1.39.4,1.54.68,3,1.17,4.4a1.88,1.88,0,0,0,1.31,1.1c9.2-.06,17.86-2,25.41-7.6a3.87,3.87,0,0,0,1.59-4c-1.13-8-2.14-16.1-3.19-24.16-.88-6.79-2.16-13.49-5-19.77-6.28-13.7-16.93-23-30.24-29.4-6.38-3.07-12.89-5.89-20.38-5-7.71.91-6.94-.14-10.08,7.81-.08.19-.09.4-.15.59-3.19,10.43-3.45,21.08-2.27,31.8a36,36,0,0,0,4.09,13.73c2.78,4.95,6.66,8.43,12.53,9.33a31.86,31.86,0,0,1,6.66,1.74c13.42,5.19,25.85,3.58,37.28-5.24,1.14-.88,2.23-1.83,3.34-2.74-2.65,4.06-6.54,6.53-10.78,8.49a37.8,37.8,0,0,1-29.18,1.3c-.1.26-.2.39-.18.5.17,1.07.32,2.14.55,3.2,1.36,6.33,3,12.55,7.81,17.3.52.51,1.11,1.2,1.75,1.3,2.71.45,5.46.71,8.46,1.06-.33-1.3-.57-2.2-.77-3.12q-1.34-6-2.65-12.05ZM177.92,150.47l.11.13a22.83,22.83,0,0,0,.91,2.87c5.12,11.05,12.12,20.48,23,26.59,2.12,1.2,4.15,2.56,6.3,3.71,24.49,13.12,50,17.87,77.17,9.47,9.85-3,19.13-7.15,27-14,2.41-2.09,4.53-4.41,5.37-7.8l-15.86,12.71a55.8,55.8,0,0,1,6.68-6.55c3-2.45,6.15-4.67,9.18-7.06a7.81,7.81,0,0,0,2.22-2.51c2.37-4.86,4.61-9.78,6.89-14.69a17.67,17.67,0,0,0,.54-1.7c-10.37,8.06-26.69,7.84-38.15,8,5.78-.59,11.85-1.07,17.88-1.84,7.13-.91,13.9-2.93,19.78-7.28a4.6,4.6,0,0,0,1.68-1.92,13.19,13.19,0,0,0-.76-10.14,38.74,38.74,0,0,1-15.49,12.15C302,155.22,291.1,156.42,280,156c-6.35-.23-12.67-1.11-19-1.77-8-.83-15.76.6-23.49,2.55a70.09,70.09,0,0,1-25.38,2.05c-10.69-1.25-20-5.91-28.67-12.1-1.67-1.2-3.27-2.5-5-3.81C177.21,145.47,176.78,147.91,177.92,150.47Zm-27.52,150a61.42,61.42,0,0,1,6.59.85Q218.42,316.14,279.82,331l24.85,6c3.13.75,5.11-.76,5.14-3.86,0-1.22.05-2.44,0-3.66q-1.57-58.85-3.17-117.68c-.15-5.35-.2-5.56-5.49-6.73-8.25-1.81-16.57-3.35-24.88-4.9a56.3,56.3,0,0,0-9-1.12c-5.47-.12-11,.6-16.43.12-17.91-1.57-34.37-7.65-49.58-17.15-3.25-2-6.32-4.35-9.95-6.87-1.88,3.15-4,6.14-5.53,9.39a261.64,261.64,0,0,0-15.46,42C163.45,250.89,157.14,275.36,150.4,300.48ZM318.66,65.58c-2.18,3-5.08,4.41-8.1,5.67-8.1,3.38-16.68,4.58-25.33,5.19-9.66.69-19.34,1.08-29,1.52-12,.55-24.09,1.07-36.14,1.49a46.93,46.93,0,0,1-10.34-.35c-7.62-1.46-15.17-3.32-22.71-5.21a4.33,4.33,0,0,0-4.1.68c-5.68,4.24-7.59,10.08-7.45,16.91.11,5.68,0,11.37.1,17.06a33.81,33.81,0,0,0,.33,3.62,3,3,0,0,0,3.13,3c1.21.07,2.4.49,3.61.58,6.2.48,12.39,1,18.6,1.29,5.32.2,10.66-.1,16,0,6.49.16,13,.87,19.47.74,10.22-.22,20.44-.89,30.65-1.48,7.44-.42,14.86-1,22.29-1.56,4.79-.36,9.6-1.34,14.35-1.06,7.2.43,14-1,20.75-3a4.71,4.71,0,0,0,3.73-4.88c.11-7.58.33-15.17,0-22.74C328.07,75.89,324.21,70.3,318.66,65.58ZM187.64,72c10.69,3,21.14,6,32.23,5.45,10.82-.52,21.66-.83,32.48-1.4,13.38-.71,26.77-1.43,40.13-2.47A51.67,51.67,0,0,0,312,68.33a41.64,41.64,0,0,0,4.74-3.2c-2.4-3.75-4.49-7.13-6.7-10.43-2.56-3.82-5.14-7.64-7.92-11.29a7.28,7.28,0,0,0-3.81-2.84c-4.78-.94-8.22-3.87-11.84-6.74a19.67,19.67,0,0,0-7.17-4,152.91,152.91,0,0,0-17.15-3c-9.34-1.14-18.51.37-27.58,2.45-8.06,1.84-16.09,3.78-22.62,9.38a20.67,20.67,0,0,1-4.3,2.68,23.29,23.29,0,0,0-8.27,7.35C194.2,55.75,190.78,63.61,187.64,72ZM310,249.07c.26,9.37.57,18.38.76,27.39q.6,28.67,1.08,57.34c.05,3.23-.36,3.84-3.46,4.85a2.76,2.76,0,0,0-2.13,2.35c-.86,4.86-1.78,9.71-2.52,14.58-.47,3.08-.26,6.3-1.07,9.26-4.83,17.61-9.86,35.16-14.84,52.72a14.81,14.81,0,0,1-.58,1.52c-.32-5-.41-9.84-.27-14.71,0-1.7-.53-2.35-2.11-2.75q-29-7.42-57.94-14.95c-2.81-.73-5.63-1.44-8.45-2.11-3.51-.82-4.8-.17-6.22,3-1.61,3.65-3.24,7.3-4.81,11-1.22,2.83-2.36,5.7-3.62,8.75l77.58,18.8c-.84,13.56-1.68,27-2.51,40.36a3.5,3.5,0,0,0,.84-1.63c5.53-19.09,11-38.19,16.61-57.27,7.3-24.89,14-49.91,16.38-75.84a29.61,29.61,0,0,1,3.73-11.63,63.64,63.64,0,0,0,4.45-9.55c1.94-5.61,4.43-11.26,5-17.05.74-8-.09-16.24-.33-24.37a2.08,2.08,0,0,0-1.13-1.54c-7.29-2.79-11.12-8.51-13.4-15.59C310.73,251.12,310.41,250.26,310,249.07Zm-5.21-97.46c-.4-4.08-.54-7.74-1.14-11.33-1.46-8.61-5-16.29-11.35-22.42a4.11,4.11,0,0,0-2.83-.94c-4.8.26-9.59.78-14.39,1-10,.55-20,1.15-30.06,1.46-7.7.24-15.44.35-23.14-.05a10.75,10.75,0,0,0-8.77,3.16,18.75,18.75,0,0,0-3.57,4.88c-4.17,8.56-4.51,17.74-4.1,27a1.87,1.87,0,0,0,1.2,1.29,60.54,60.54,0,0,0,8,1.28,75.36,75.36,0,0,0,24.14-2.61c7.6-2,15.27-3.13,23.11-2.07,9.49,1.29,19,2.3,28.56,1.4C295.14,153.28,299.78,152.37,304.79,151.61ZM156.22,322.7c-1.28,5.07-2.77,9.85-3.67,14.73-1.17,6.3-1.26,12.64,1,18.84a4.7,4.7,0,0,0,3.73,3.41c17.08,3.86,34.12,7.83,51.18,11.76,2.45.57,4.92,1.09,7.6,1.68-3-12.46-.54-24,3.83-35.43Zm133.16,81.78c3.22-11.4,6.43-22.72,9.65-34.12-.69-.23-1.12-.42-1.57-.52q-32.15-7.18-64.29-14.41c-1.63-.37-2.11.15-2.63,1.47-2.46,6.22-5,12.41-7.51,18.61l-2.92,7.17c.63.22,1.06.41,1.51.53l63.2,16.33c3.83,1,3.84.95,4.26,4.7C289.08,404.28,289.16,404.31,289.38,404.48Zm-84.51,51,71.53,17.7c1-15.21,1.9-30.27,2.85-45.5l-75.74-18.34C204,425,204.42,440.17,204.87,455.5Zm133.22-136c5.47-4,7.28-4.93,11.09-5.41,9.54-1.2,18.4,1.17,26.85,5.36a17.26,17.26,0,0,1,8.47,8.19,58.51,58.51,0,0,1,2.31,7.61,6,6,0,0,0,.3-.82c2-7.85,4-15.73,6.15-23.55a24.38,24.38,0,0,0-.11-12.83,18.82,18.82,0,0,0-9.29-12.38,31.73,31.73,0,0,1-3.6,2.56,2.14,2.14,0,0,0-1.18,3.06c1.46,4.22.39,7.71-3.24,10.37a10.55,10.55,0,0,0-1.41,1.17c-1.55,1.63-3.19,1.83-5.41,1.15a42.76,42.76,0,0,0-20.12-1.28c-.89-2.81-1.74-5.51-2.59-8.21l-.56.05C343.23,302.72,340.71,310.94,338.09,319.46ZM220.45,376.29l-52.26-11.83-4.08,16.31,43.81,11.54c.88-2,1.86-3.76,2.49-5.67,1.06-3.18,3.17-4.53,6.44-4.4a1.92,1.92,0,0,0,1.5-.86C219.12,379.81,219.7,378.16,220.45,376.29Zm79.06-8.08c2.34-5.53,1.56-11.36,2.22-17-.73,1.72-1.46,3.45-2.22,5.23l-64.19-15.11L232,353.1Zm27.82-256.16-2.5.76c-6.83,2.11-13.7,3.57-21,2.89-3.18-.3-6.44.26-10.17.45,9.49,9.87,12.81,21.51,12.91,34.49,7.93-2.58,14.49-6.72,19.49-13.23a7.81,7.81,0,0,0,1.51-5.87c-.22-2.61,0-5.25,0-7.88C327.52,119.9,327.42,116.15,327.33,112.05ZM110.49,238.4l.52.58c8.62-5.48,17.52-5.49,26.56-1.47s15.92,9.61,17.68,20.08a189.55,189.55,0,0,0,6.72-19c.8-3,.13-6.36.13-9.71-2.32.29-4,.64-4.74,2.88a10.35,10.35,0,0,1-2.27,3.32,4,4,0,0,1-5.17.81c-.72-.37-1.4-.83-2.08-1.27-4.92-3.13-9.81-6.31-15.85-6.86a5.16,5.16,0,0,1-2.05-.84c-2.15-1.32-3.17-3.76-2-5.69,1.58-2.57.91-4.66-.87-7.14-1.73,1.42-4,2.5-5,4.27C118,224.94,114.31,231.71,110.49,238.4Zm17.77,4.33c6.74,0,11.76,3.15,15.27,8.93a10.33,10.33,0,0,1,.42,10.81c-1.2,2.27-2.72,4.36-3.92,6.63a23.93,23.93,0,0,0-1.91,4.83c-.37,1.36.38,2,1.83,1.78a13.65,13.65,0,0,0,11.47-8.6c3-7.46,2-14.66-3.86-20.47-6.59-6.57-14.62-10.2-24.1-9.82-5,.2-9.39,2.29-13.31,5.41-2.82,2.24-3.19,5.56-4,8.66a11.08,11.08,0,0,0,1.85,9.08c1.23,1.79,2.55,1.65,3.43-.19,1.71-3.53,3.76-6.95,5-10.64,1.5-4.48,4.73-5.81,8.84-6.23C126.26,242.82,127.21,242.79,128.26,242.73Zm26.29,77.47L298.33,354l6.08-15L156.18,303.21C155.63,309,155.11,314.39,154.55,320.2Zm51.36-201.52a46.31,46.31,0,0,1-6.46.48c-6.6-.5-13.19-1.15-19.77-1.86-2.21-.24-2.76-.14-2.43,2,.45,3,1.46,6,2.17,9a4.28,4.28,0,0,1,.13,2.23c-2.05,5.83-.82,10.08,4.1,13.77.48.37,1,.75,1.47,1.08,2.75,1.77,5.51,3.52,8.49,5.42C194.4,138.73,195.33,127.16,205.91,118.68Zm110.8,59.39c-11.4,11.21-25.6,16.32-40.94,19.71l31,6.35c3.92-6,8-12.18,12.07-18.37,2.32-3.49,2.25-4.18-1-6.86C317.5,178.64,317.17,178.42,316.71,178.07Zm31.62,163.77c-1.39-1.91-2.85-3.6-4-5.5-4-6.78-.72-16.61,9.45-16.19a61.31,61.31,0,0,1,8.63,1.08,21.08,21.08,0,0,1,11.65,6.57,13.12,13.12,0,0,1,3.84,10.1,4.7,4.7,0,0,0,2.71,4.66c1.88.92,3.23.29,3.46-1.78a44.07,44.07,0,0,0,.24-5.27c0-5.08-2-9.37-6.14-12.2-9-6.1-19.07-8.7-29.88-7-6.58,1-13.17,6.42-10.88,15.93C338.89,338.22,343,342.11,348.33,341.84ZM213.92,119.07l-.21-.54a38.74,38.74,0,0,0-4.44,1,15,15,0,0,0-7.61,6.44c-4.76,7.63-5.77,16.17-5.79,24.92a1.45,1.45,0,0,0,.62,1.12c2.14.95,4.32,1.81,6.57,2.73.19-4.46.17-8.65.6-12.79C204.57,133.28,206.33,124.86,213.92,119.07Zm8,219.16c-.43,1-.81,1.84-1.09,2.67-3.5,10-5.51,20-3.09,30.61.48,2.12,1.6,2.7,3.86,2.7.46-2,1.42-4,1.3-6a63.6,63.6,0,0,1,.9-17.16c.82-3.92,2-7.76,3.1-11.71Zm128.34-37.9a42.08,42.08,0,0,1,17.89,1.29c2.93.92,4.69,0,6.6-1.78,3.31-3.1,3.74-5.16,1.72-9.4-8.77,4.2-18.09,5.06-27.87,4.26C349.2,296.65,349.71,298.38,350.29,300.33Zm-41.7-80.23.3-.09c1.4-4.56,2.72-9.15,4.23-13.67,1.05-3.12,3.08-5.21,6.7-5.12.8,0,1.62-.26,2.42-.23,1.36.07,1.83-.59,1.73-1.83-.25-3.5-.45-7-.81-10.49A23.91,23.91,0,0,0,322,184.8c-1.9,2.8-3.55,5.1-5.07,7.5-2.63,4.17-5.18,8.38-7.73,12.61a3.82,3.82,0,0,0-.59,1.9C308.57,211.24,308.59,215.67,308.59,220.1Zm47.14,102.27c-6.63-1-11,2.23-10.93,8,0,4.53,2.72,7.6,6.11,10.64C352.56,334.61,354.14,328.5,355.73,322.37Zm-148.85,71.8-41.2-10.86-.39.67c1.76,1.35,3.34,3.42,5.32,4,11,3,22.12,5.54,33.16,8.41C205.87,396.89,206.61,396.29,206.88,394.17Zm26.73-53.11c-.89-.29-1.26-.43-1.64-.52-2.71-.65-2.83-.68-3.68,2-1,3.14-1.88,6.34-2.6,9.56a39.39,39.39,0,0,0-.75,6.24c-.12,2.08,0,4.18,0,6.28l.63.15C228.21,356.94,230.88,349.11,233.61,341.06ZM130.68,220.3c-1.8,3.33-1,4.86,2.56,5.73a51.26,51.26,0,0,1,8.62,2.77,63.35,63.35,0,0,1,7.51,4.42c3.22,2,5.64.81,6.2-3.12C146,230.22,137.65,227.3,130.68,220.3Z"/><path d="M229.41,366.78c.35-1.53.84-2.32,2.73-2,5.9.87,11.83,1.48,17.75,2.18a1.84,1.84,0,0,0,1.26-.27L232,361.09l.75-2.8c1.32.36,2.53.66,3.72,1,8.12,2.58,16.17,5.38,24.37,7.69a74.07,74.07,0,0,0,12.37,1.91c6.67.69,13.36,1.2,20.05,1.67,1.94.13,1.43,1.34,1.44,2.57C272.79,372.51,251.13,369.76,229.41,366.78Z"/><path d="M227.69,371.75c.29-1.79,1.22-2.2,2.87-1.84q29.32,6.33,58.67,12.58a2.69,2.69,0,0,1,1,.29,8.23,8.23,0,0,1,1,1c-.46.22-.95.66-1.39.61-4-.5-8-1.19-12.07-1.63-16.48-1.78-32.37-6.29-48.34-10.44C228.82,372.12,228.26,371.92,227.69,371.75Z"/><path d="M288.64,391.79c.08,2-1.05,1.75-2.18,1.63-17.39-1.8-34.56-4.62-50.94-11.13-3.38-1.35-6.86-2.44-10.37-3.68.21-1.84,1-2.2,2.73-1.63,8.13,2.71,16.17,5.86,24.49,7.85,11.15,2.67,22.53,4.41,33.82,6.54C287,391.52,287.78,391.64,288.64,391.79Z"/><path d="M267.76,374.29l25.67,2.14c.18,1.23.13,2-1.49,1.71-8.06-1.23-16.14-2.38-24.21-3.56Z"/><path d="M212.26,419.1l25.47,6.06c9.4,2.25,18.79,4.52,28.2,6.74,1,.24,1.72.42,1.6,1.76-1,10.86-1.88,21.72-2.81,32.58a4.53,4.53,0,0,1-.24.83l-40.3-10.35c-3.21-.82-6.43-1.58-9.6-2.53a2.39,2.39,0,0,1-1.45-1.67c-.4-10.83-.68-21.66-1-32.5A9,9,0,0,1,212.26,419.1Zm53.19,14.79-38.79-9.25c-.84,7.13,2.07,16.23,9.18,20.4a29.6,29.6,0,0,0,19.2,3.57,15.93,15.93,0,0,0,8.61-3.78,2.61,2.61,0,0,0,1-1.41C264.94,440.33,265.16,437.22,265.45,433.89Zm-1.12,13.23c-8.17,5.07-16.46,4.7-24.75,1.92-8.93-3-13.61-9.69-15.32-18.89l-8.71,22.22,47.31,12.16C263.35,458.68,263.83,453.1,264.33,447.12Zm-39.92-23-10.22-2.41c.28,8.65.56,17,.84,25.31l.39.07Z"/><path d="M131,203.21a31.15,31.15,0,0,1,1,3.59c1.31,8.06,6.48,12.81,13.58,15.89a1.85,1.85,0,0,0,1.63-.51c1-1.33,1.9-2.78,3-4.45a19.21,19.21,0,0,1-9.86-6.64A29.26,29.26,0,0,1,135,200.78c3.9,6.92,7.2,14.4,16.59,16.37-1.58,2.33-3,4.44-4.44,6.48-.17.24-.85.3-1.22.18-7-2.22-14.88-9.46-15.16-17.8a20.62,20.62,0,0,1,.23-2.82Z"/><path d="M350.07,277.89c-.11-.16-.3-.3-.34-.47-.16-.71-.27-1.43-.42-2.25,11.65-.58,22.91-1.88,29.88-13.33a7.56,7.56,0,0,1-.46,1.68,21.13,21.13,0,0,1-11.05,9.41,41.32,41.32,0,0,1-15,3c-.8,0-1.61,0-2.49,0-.06.78-.09,1.37-.14,2Z"/><path d="M177.92,150.47l.23-1.16c.32.13.58.16.66.29,4.57,7.44,11.82,10.56,19.9,12.41a54.47,54.47,0,0,0,19.18.48,14,14,0,0,1,2.59-.08c-10.37,1.89-20.62,2-30.59-2.11-4.95-2-9.17-4.92-11.86-9.7Z"/><path d="M278.63,244.49c1.88,2.71,3.62,5.53,5.68,8.09,3,3.72,4.64,4,8.64,1.42,2.37-1.5,4.55-3.29,7.07-5.14-2.14,4-4.37,7.57-7.79,10.21-2.93,2.26-5.46,2-7.77-.86C281.21,254.18,279.74,249.36,278.63,244.49Zm3.76,7.53-.56.33c1.4,2,2.7,4.11,4.23,6a3.14,3.14,0,0,0,4,.82,12.49,12.49,0,0,0,5.24-5.24C287.49,257.64,287.49,257.64,282.39,252Z"/><path d="M179.17,222.06c2.3,3.1,4.3,6.06,6.57,8.81s3.45,3,6.55,1c2.34-1.55,4.49-3.4,6.84-5-2.38,4.35-4.92,8.59-9.59,11-2.2,1.12-4.12.64-5.46-1.84a76.59,76.59,0,0,1-3.94-9.48A31.7,31.7,0,0,1,179.17,222.06Zm2.69,5.76-.54.3c1.28,2.56,2.46,5.18,3.88,7.65a2.73,2.73,0,0,0,4.22.92c1.92-1.34,3.64-3,5.44-4.48l-.39-.47c-.56.35-1.13.69-1.7,1-3.66,2.16-5.08,1.95-7.88-1.26C183.85,230.31,182.87,229.05,181.86,227.82Z"/><path d="M291,233.16c1.8,4.32,3.5,8.29,5.08,12.31a2.89,2.89,0,0,1-.16,2.1,8,8,0,0,1-6.52,4.57,4,4,0,0,1-3.17-1.29,40.64,40.64,0,0,1-3.37-6.36,2,2,0,0,1,.31-1.65C285.68,239.71,288.22,236.63,291,233.16Zm-.29,2c-1.86,2.32-3.42,4.27-5,6.21-2.39,3-2.41,3.1-.57,6.51a13.48,13.48,0,0,0,.74,1.21c1.65,2.35,3.19,2.79,5.7,1.36a10.65,10.65,0,0,0,3-2.61,2.92,2.92,0,0,0,.38-2.42C293.77,242.06,292.31,238.81,290.75,235.12Z"/><path d="M191.35,211.14c-.85,3.07,1.17,5.73,2.8,8.53.93,1.59,2.42,3.09,1.2,5.19a8.55,8.55,0,0,1-6.17,4.5,3.91,3.91,0,0,1-3.14-1.3,27.59,27.59,0,0,1-3.45-6.13,3.34,3.34,0,0,1,.74-2.89C186,216.23,188.81,213.61,191.35,211.14Zm-1.41,3c-.56.71-1.07,1.43-1.66,2.07a10.79,10.79,0,0,1-2.07,1.93c-3.53,2.16-3.52,2.32-1.41,6.46.12.24.24.48.38.71,2.33,3.93,4.11,4.21,7.56,1.21a13.52,13.52,0,0,0,1-1,3.06,3.06,0,0,0,.35-4.06C192.64,219.07,191.35,216.63,189.94,214.12Z"/><path d="M223.78,275.71l-3.5,1.11c-1.11-1.74-1-2.25.73-2.75,3-.89,3-.89,2.93-4v-4c2.47.52,2.47.52,3,5.57,2,.34,4.63-1.87,6.29,1.64-1.81.47-3.38,1-5,1.27-1.27.22-1.93.69-1.9,2.07a7.83,7.83,0,0,1-.4,2.18c-.5,1.93-1,2.09-2.74.9Z"/><path d="M242.3,262.85s-.4.38-.71.3c-2.64-.63-4.54,1.2-6.77,1.94s-4.64,1.56-7.3,0l9.41-4.51-4-3.73.23-.64a6.62,6.62,0,0,1,1.93.39,24.52,24.52,0,0,0,2.48,1.72,4.4,4.4,0,0,0,2.33-.18,10.24,10.24,0,0,0,1.79-.82,17.5,17.5,0,0,1,.61,2.42A28.45,28.45,0,0,1,242.3,262.85Z"/><path d="M264.26,232.92a4.52,4.52,0,0,1,1.31-4.83c2.77-2.57,5.06,0,7.66,1.12-1-2-4.43-1.54-4-5.11,2.46,1.71,4.69,3.08,6.71,4.71,1.38,1.11,1,2.55-.76,2.85a6.13,6.13,0,0,1-3.89-.48c-2.5-1.47-4.41-1.22-6.12,1.08A5.29,5.29,0,0,1,264.26,232.92Z"/><path d="M250.15,252.1c-1.64-1.37-3.3-2.72-4.91-4.13-.13-.12.15-.69.29-1.26,2.41,1.59,4.64,3.06,6.86,4.56,1.24.83,1.16,1.68,0,2.53-1.44,1-2.7,1.75-4.44.19-2.24-2-3-1.87-5.54-.17-.54.36-1.1.7-2,1.26-.37-2.38,1.23-3.34,2.37-4.52a2.17,2.17,0,0,1,3.09-.26,28.57,28.57,0,0,0,2.6,1.58,8.93,8.93,0,0,0,1.64.51Z"/><path d="M259.38,232.24c1.18.24,2.19.82,2.05,2.35q-.56,5.85-1.25,11.68c-.13,1.08-.56,2-2,1.68s-1.3-1.12-1.08-2.31C258,241.21,258.63,236.76,259.38,232.24Z"/><path d="M281.29,228.75a45.62,45.62,0,0,1-5.45-2.2,40.75,40.75,0,0,1-4.4-3.27,2.14,2.14,0,0,1-.56-3.25l10.64,8.11Z"/><path d="M247.19,243.2l9.88,7.66-.15.5a16.17,16.17,0,0,1-3.27-1.12c-2.15-1.27-4.16-2.77-6.26-4.14C246,245.18,246.05,244.24,247.19,243.2Z"/><path d="M265.71,237.69a16.28,16.28,0,0,1-.12,2.32,27.94,27.94,0,0,1-3.3,0l-.05-.72Z"/><path d="M230.21,259.38l2.85-1.49a9.58,9.58,0,0,1,0,1.82,21.1,21.1,0,0,1-2.76.22Z"/><path d="M156.23,298.43,160.78,281l8.31,2.66a3.28,3.28,0,0,0,.46-.5c2.42-4,2.6-4.08,7-2.21,6,2.5,12,5,17.68,7.41L217,254.45c-6-10.78-12.41-21.92-18.39-33.3-4.18-8-7.82-16.19-11.54-24.37a4.78,4.78,0,0,1,4.69-6.75,130.83,130.83,0,0,1,13.07,1.69c3.73.62,7.43,1.46,11.11,2.36a3.36,3.36,0,0,1,1.93,1.64c2.16,4.51,4.14,9.11,6.32,13.62a6.16,6.16,0,0,0,2.36,2.59c5.89,3.31,11.85,6.48,18.1,9.87l-16.44-4.53c1.17,8,6.62,13.5,14.18,14.45a2.18,2.18,0,0,0,1.58-.54c2.32-2.27,4.59-4.6,6.85-6.94,1.6-1.66,3.15-3.36,4.87-5.19-14.23-4.88-26.77-12.07-36.88-23.76,2.66.1,4.5.48,6,2.56,3,4.16,7.15,7,11.5,9.52a5.37,5.37,0,0,0,3.31.35c6.88-1.06,13.73-2.33,20.62-3.3,1.54-.22,3.21.44,4.81,1a75.33,75.33,0,0,1-22.72,5.21c.94.55,1.33.85,1.77,1,3.93,1.65,7.88,3.24,11.78,4.94a2.13,2.13,0,0,0,2.81-.69c2.39-2.69,5-5.16,7.23-8,1.58-2,3.24-2.16,5.44-1.61,4.05,1,8.12,1.92,12.19,2.81,3.11.68,6.24,1.21,9.35,1.89s4.53,2.69,4.86,5.84a6.71,6.71,0,0,1-2.1,5.7,401.45,401.45,0,0,1-36.24,34.72c-11.72,9.91-22.51,20.79-31.15,33.6-.76,1.12-1.39,2.33-2.05,3.51a5.37,5.37,0,0,0-.3,1l27.06,4.07c-.05,1.2-.1,2.26-.16,3.63,2.92.52,6,1.07,9,1.59q19.2,3.3,38.41,6.56c2.29.39,2.38,2.54,2.39,3.84,0,6.36-.33,12.72-.56,19.28-32.39-6.77-64.36-14.76-96.62-23.57,3.16-.43,5.88-.69,8.56-1.19,5.38-1,9.32-7.58,7.82-12.89a3.15,3.15,0,0,0-2.49-2.62c-1.39-.27-2.77-.6-4.16-.78-1.94-.26-2.91.42-3.46,2.57-1.3,5.1-5.21,8.16-9.37,11s-7.85,2.42-12.22.66c-3.65-1.47-7.74-1.84-11.59-2.86-7.05-1.86-14.07-3.83-21.09-5.77A7.77,7.77,0,0,1,156.23,298.43Zm66.94-6c2.82-3.91,5.42-7.71,8.21-11.37,5.62-7.38,11.12-14.92,18.72-20.46a225.1,225.1,0,0,0,45.38-43.69c1.19-1.53,1-2.55-.25-3.58a6.84,6.84,0,0,0-2.64-1.35c-3.22-.75-6.56-1.11-9.71-2.06s-5.54-.51-7.07,2.65a5.51,5.51,0,0,1-1.18,1.38c-8.39,8.19-16.66,16.49-25.21,24.5-6.61,6.21-13.76,11.85-20.32,18.12-7.84,7.49-13.45,16.75-19.06,26-1.35,2.22-2.63,4.49-4.33,7.4,2.12.18,3.66.59,5.13.39C215.16,289.75,219.34,289.6,223.17,292.45ZM231.31,242c-1-1.64-2.07-3.13-2.87-4.75q-10.32-21-20.52-42.08c-.68-1.39-1.37-2.26-3-2.45-2.81-.33-5.58-1.05-8.39-1.4a21.13,21.13,0,0,0-5.83-.13c-2.2.34-2.56,1.46-1.6,3.47s1.83,3.92,2.82,5.84q12.13,23.5,24.32,47c.94,1.81,2.19,3.45,3.28,5.15Zm18.89,66.66,42.43,9.55c-7.08-.69-14.1-1.71-21.12-2.71s-14.33-2-21.49-3.1c-1.21-.18-2,0-2.06,1.68l35.71,10.63-.09.33L246,317.42l-1.4,3L301,333.24c.23-6.52.44-12.83.67-19.25l-50.23-8Zm-51.87-20a41,41,0,0,1,5.28.06,1.87,1.87,0,0,0,2.25-1.05c2.46-4.21,4.93-8.42,7.57-12.51,4.89-7.57,10-15,16.77-21.09,7.07-6.32,14.36-12.4,21.27-18.9,7.89-7.42,15.49-15.16,23.17-22.8a40.49,40.49,0,0,0,2.72-3.42,24.84,24.84,0,0,1-3-.67c-2.34-.86-3.91-.05-5.65,1.7-11.53,11.64-22.47,23.89-35,34.6-10,8.59-19.27,17.88-26.29,29.18C204.46,278.65,201.48,283.54,198.33,288.68Zm43.8,28.68c2.39-5.17,4.69-10.17,7.07-15.33l-23.45-3.45-.42,5.36L237,307.65a43.81,43.81,0,0,1-7.71-.36c-3.11-.39-6.17-.9-7.81,2.81-.22.5-.89.79-1.62,1.39Zm-63-26.53.15-.33,13.54,3.6,1.21-1.88c-.27-.23-.4-.4-.57-.46-6.23-2.41-12.48-4.79-18.7-7.23-1.17-.46-1.56.14-2,1-2,3.6-4.06,7.18-6.08,10.78-.44.78-.83,1.6-1.3,2.5l24.21,6,.32-3.77-15.75-2.81c4.33,0,9.26-.09,14.2,0,1.88.05,3.1-.41,3.58-2.49Zm57-52.62a2.08,2.08,0,0,0-.08-.52q-10.12-20.1-20.26-40.19c-1.45-2.89-3.81-4.12-7.43-3.56,7.59,16,14.58,32.22,23.73,47.55Zm-35.85,53.64c-.84.46-2,.7-2.35,1.36-1.58,3.48-3,7-4.28,10.63a2.93,2.93,0,0,0,.85,2.66,2.84,2.84,0,0,0,2.74-.26c3.63-3.41,7.13-7,10.58-10.57a1.86,1.86,0,0,0-.44-1.65C205.11,293.21,202.77,292.58,200.29,291.85Zm-39.45,7c2.52-4.56,4.9-8.86,7.39-13.38l-7-2.17-3.78,14.57Z"/></g><g id="headscarf"><path d="M187.64,72c3.14-8.38,6.56-16.24,11.7-23.23a23.29,23.29,0,0,1,8.27-7.35,20.67,20.67,0,0,0,4.3-2.68c6.53-5.6,14.56-7.54,22.62-9.38,9.07-2.08,18.24-3.59,27.58-2.45a152.91,152.91,0,0,1,17.15,3,19.67,19.67,0,0,1,7.17,4c3.62,2.87,7.06,5.8,11.84,6.74a7.28,7.28,0,0,1,3.81,2.84c2.78,3.65,5.36,7.47,7.92,11.29,2.21,3.3,4.3,6.68,6.7,10.43a41.64,41.64,0,0,1-4.74,3.2,51.67,51.67,0,0,1-19.48,5.24c-13.36,1-26.75,1.76-40.13,2.47-10.82.57-21.66.88-32.48,1.4C208.78,78,198.33,75,187.64,72Z" fill="#fff"/><path d="M177.92,150.47c-1.14-2.56-.71-5,.57-7.55,1.69,1.31,3.29,2.61,5,3.81,8.65,6.19,18,10.85,28.67,12.1a70.09,70.09,0,0,0,25.38-2.05c7.73-1.95,15.47-3.38,23.49-2.55,6.33.66,12.65,1.54,19,1.77,11.11.42,22-.78,32.37-5.37a38.74,38.74,0,0,0,15.49-12.15,13.19,13.19,0,0,1,.76,10.14,4.6,4.6,0,0,1-1.68,1.92c-5.88,4.35-12.65,6.37-19.78,7.28-6,.77-12.1,1.25-17.88,1.84,11.46-.14,27.78.08,38.15-8a17.67,17.67,0,0,1-.54,1.7c-2.28,4.91-4.52,9.83-6.89,14.69a7.81,7.81,0,0,1-2.22,2.51c-3,2.39-6.19,4.61-9.18,7.06a55.8,55.8,0,0,0-6.68,6.55l15.86-12.71c-.84,3.39-3,5.71-5.37,7.8-7.89,6.81-17.17,10.92-27,14-27.15,8.4-52.68,3.65-77.17-9.47-2.15-1.15-4.18-2.51-6.3-3.71-10.85-6.11-17.85-15.54-23-26.59a22.83,22.83,0,0,1-.91-2.87c2.69,4.78,6.91,7.67,11.86,9.7,10,4.09,20.22,4,30.59,2.11a14,14,0,0,0-2.59.08,54.47,54.47,0,0,1-19.18-.48c-8.08-1.85-15.33-5-19.9-12.41-.08-.13-.34-.16-.66-.29Z" fill="#fff"/><path d="M327.33,112.05c.09,4.1.19,7.85.24,11.61,0,2.63-.18,5.27,0,7.88a7.81,7.81,0,0,1-1.51,5.87c-5,6.51-11.56,10.65-19.49,13.23-.1-13-3.42-24.62-12.91-34.49,3.73-.19,7-.75,10.17-.45,7.26.68,14.13-.78,21-2.89Z" fill="#fff"/><path d="M205.91,118.68c-10.58,8.48-11.51,20-12.3,32.15-3-1.9-5.74-3.65-8.49-5.42-.51-.33-1-.71-1.47-1.08-4.92-3.69-6.15-7.94-4.1-13.77a4.28,4.28,0,0,0-.13-2.23c-.71-3-1.72-5.94-2.17-9-.33-2.19.22-2.29,2.43-2,6.58.71,13.17,1.36,19.77,1.86A46.31,46.31,0,0,0,205.91,118.68Z" fill="#fff"/><path d="M213.92,119.07c-7.59,5.79-9.35,14.21-10.26,22.93-.43,4.14-.41,8.33-.6,12.79-2.25-.92-4.43-1.78-6.57-2.73a1.45,1.45,0,0,1-.62-1.12c0-8.75,1-17.29,5.79-24.92a15,15,0,0,1,7.61-6.44,38.74,38.74,0,0,1,4.44-1Z" fill="#fff"/></g><g id="skin"><path d="M304.79,151.61c-5,.76-9.65,1.67-14.34,2.11-9.57.9-19.07-.11-28.56-1.4-7.84-1.06-15.51.06-23.11,2.07A75.36,75.36,0,0,1,214.64,157a60.54,60.54,0,0,1-8-1.28,1.87,1.87,0,0,1-1.2-1.29c-.41-9.27-.07-18.45,4.1-27a18.75,18.75,0,0,1,3.57-4.88,10.75,10.75,0,0,1,8.77-3.16c7.7.4,15.44.29,23.14.05,10-.31,20-.91,30.06-1.46,4.8-.27,9.59-.79,14.39-1a4.11,4.11,0,0,1,2.83.94c6.39,6.13,9.89,13.81,11.35,22.42C304.25,143.87,304.39,147.53,304.79,151.61ZM219,127l-.39.59c3,4.71,8.23,5.58,13.29,6.72-2.52,4-2.45,7.58.07,10.28,2.06,2.19,4.78,2.88,7.15,1.49a8.59,8.59,0,0,0,2.76-2.83c1.33-2.15.88-4.5,0-6.88,2.73.33,5.27.7,7.82.91a2.78,2.78,0,0,0,2.12-.62c1-1.19.35-5.92-.41-6.86-1,.53-1.83,1.43-2.65,1.39-2.63-.12-5.24-.55-7.86-.92-4.67-.67-9.3-1.92-14.09-.91a7.49,7.49,0,0,1-6.28-1.57A9.91,9.91,0,0,0,219,127Zm48.86,8.35c-.06.58-.07.78-.11,1-.86,4.26,1,7.83,4.58,8.68,3.35.8,6.93-1.86,7.95-5.91a8.52,8.52,0,0,0-1.41-6.93c4.91-1.82,9.48-3.81,12.3-8.36a4.23,4.23,0,0,0-2.26.65,11.35,11.35,0,0,1-6.11,1.78,37.54,37.54,0,0,0-7.32,1.27c-4.49,1.15-8.93,2.49-13.17,3.68l-2-2.67-.72.15c-.09,1.55-.22,3.11-.25,4.66-.06,3.31.44,3.71,3.63,3Zm-13.42.56c1.83-2.51,1.52-7.07,0-9.15Zm3.46.09-.82-8.94C255.83,129.31,256.15,134,257.94,136Z" fill="#fff"/><path d="M338.09,319.46c2.62-8.52,5.14-16.74,7.66-25l.56-.05c.85,2.7,1.7,5.4,2.59,8.21A42.76,42.76,0,0,1,369,303.94c2.22.68,3.86.48,5.41-1.15a10.55,10.55,0,0,1,1.41-1.17c3.63-2.66,4.7-6.15,3.24-10.37a2.14,2.14,0,0,1,1.18-3.06,31.73,31.73,0,0,0,3.6-2.56A18.82,18.82,0,0,1,393.15,298a24.38,24.38,0,0,1,.11,12.83c-2.16,7.82-4.11,15.7-6.15,23.55a6,6,0,0,1-.3.82,58.51,58.51,0,0,0-2.31-7.61,17.26,17.26,0,0,0-8.47-8.19c-8.45-4.19-17.31-6.56-26.85-5.36C345.37,314.53,343.56,315.45,338.09,319.46Z" fill="#fff"/><path d="M348.33,341.84c-5.3.27-9.44-3.62-10.88-9.59-2.29-9.51,4.3-14.89,10.88-15.93,10.81-1.71,20.85.89,29.88,7,4.18,2.83,6.13,7.12,6.14,12.2a44.07,44.07,0,0,1-.24,5.27c-.23,2.07-1.58,2.7-3.46,1.78a4.7,4.7,0,0,1-2.71-4.66,13.12,13.12,0,0,0-3.84-10.1,21.08,21.08,0,0,0-11.65-6.57,61.31,61.31,0,0,0-8.63-1.08c-10.17-.42-13.43,9.41-9.45,16.19C345.48,338.24,346.94,339.93,348.33,341.84Z" fill="#fff"/><path d="M355.73,322.37c-1.59,6.13-3.17,12.24-4.82,18.62-3.39-3-6.07-6.11-6.11-10.64C344.75,324.6,349.1,321.41,355.73,322.37Z" fill="#fff"/><path d="M350.29,300.33c-.58-1.95-1.09-3.68-1.66-5.63,9.78.8,19.1-.06,27.87-4.26,2,4.24,1.59,6.3-1.72,9.4-1.91,1.8-3.67,2.7-6.6,1.78A42.08,42.08,0,0,0,350.29,300.33Z" fill="#fff"/><path d="M110.49,238.4c3.82-6.69,7.5-13.46,11.55-20,1.1-1.77,3.32-2.85,5-4.27,1.78,2.48,2.45,4.57.87,7.14-1.19,1.93-.17,4.37,2,5.69a5.16,5.16,0,0,0,2.05.84c6,.55,10.93,3.73,15.85,6.86.68.44,1.36.9,2.08,1.27a4,4,0,0,0,5.17-.81,10.35,10.35,0,0,0,2.27-3.32c.76-2.24,2.42-2.59,4.74-2.88,0,3.35.67,6.73-.13,9.71a189.55,189.55,0,0,1-6.72,19c-1.76-10.47-8.79-16.13-17.68-20.08s-17.94-4-26.56,1.47Z" fill="#fff"/><path d="M128.26,242.73c-1,.06-2,.09-2.94.18-4.11.42-7.34,1.75-8.84,6.23-1.24,3.69-3.29,7.11-5,10.64-.88,1.84-2.2,2-3.43.19a11.08,11.08,0,0,1-1.85-9.08c.76-3.1,1.13-6.42,4-8.66,3.92-3.12,8.28-5.21,13.31-5.41,9.48-.38,17.51,3.25,24.1,9.82,5.83,5.81,6.87,13,3.86,20.47a13.65,13.65,0,0,1-11.47,8.6c-1.45.2-2.2-.42-1.83-1.78A23.93,23.93,0,0,1,140,269.1c1.2-2.27,2.72-4.36,3.92-6.63a10.33,10.33,0,0,0-.42-10.81C140,245.88,135,242.76,128.26,242.73Z" fill="#fff"/><path d="M130.68,220.3c7,7,15.34,9.92,24.89,9.8-.56,3.93-3,5.13-6.2,3.12a63.35,63.35,0,0,0-7.51-4.42,51.26,51.26,0,0,0-8.62-2.77C129.72,225.16,128.88,223.63,130.68,220.3Z" fill="#fff"/></g><path id="chinesesymbol" d="M240.25,83.51a34.21,34.21,0,0,1,4.69,3.24c.83.79,1.12,2.16,1.73,3.45,2.53-2.17,6.11-3.25,8.27-6.91,1.56.87,3.68,1.45,4.76,2.83s.88,3.43,1.3,5.38c1.93-1.2,3.94-2.39,5.89-3.67,1.4-.93,2.05-.63,2.28,1,.37,2.69-.29,4.21-2.57,5.59l-.52.33c-5.54,3.34-5.69,3.65-4.87,10.55,1.58-.07,3.17-.17,4.77-.2s3.07,0,4.63,0c-.23,2.63-1.46,4.43-3.38,4.77s-4,.39-6.14.58c0,.73-.08,1.46-.16,2.18-.23,2-1.63,2.43-3.31,2.6s-1.92-1-2.08-2.31c-.09-.67-.24-1.33-.41-2.29l-8.32.39c-.51,3.23-1.72,4.53-4.16,4.31-2.92-.26-.85-2.78-1.84-4.18-1.3-.06-2.77-.15-4.25-.21-1.08,0-2.12-.21-2.13-1.59a2.16,2.16,0,0,1,2.06-2.51l4.18-.38c-.1-2-.19-3.92-.3-6a27.46,27.46,0,0,0-3,1c-1.33.61-2.32.3-2.75-1s-1.3-2.77.7-3.63a1.62,1.62,0,0,1,.18-.1c4.35-1.13,5.44-4.08,4.74-8.2A30.91,30.91,0,0,1,240.25,83.51Zm6.39,22.71,8.11-.74v-3.7c-1.31.63-2.39,1.18-3.49,1.67-1.61.73-2.9.11-2.7-1.6A9,9,0,0,1,250.42,98a8.73,8.73,0,0,1,2.31-1.61c2.48-1.68,2.59-2,1.68-4.94-2.46,1.77-4.92,3.53-7.34,5.34a1.47,1.47,0,0,0-.42,1C246.62,100.56,246.64,103.26,246.64,106.22Z"/><g id="eyes2"><path d="M219,127a9.91,9.91,0,0,1,1.56.79,7.49,7.49,0,0,0,6.28,1.57c4.79-1,9.42.24,14.09.91,2.62.37,5.23.8,7.86.92.82,0,1.69-.86,2.65-1.39.76.94,1.36,5.67.41,6.86a2.78,2.78,0,0,1-2.12.62c-2.55-.21-5.09-.58-7.82-.91.85,2.38,1.3,4.73,0,6.88a8.59,8.59,0,0,1-2.76,2.83c-2.37,1.39-5.09.7-7.15-1.49-2.52-2.7-2.59-6.24-.07-10.28-5.06-1.14-10.24-2-13.29-6.72Zm15.85,8a6.28,6.28,0,0,0-1,2,3.05,3.05,0,0,0,2.78,3.18,2.84,2.84,0,0,0,2.74-2.74C239.51,135.86,238.43,135.17,234.89,135Z"/><path d="M267.9,135.37l-4.9,1c-3.19.67-3.69.27-3.63-3,0-1.55.16-3.11.25-4.66l.72-.15,2,2.67c4.24-1.19,8.68-2.53,13.17-3.68a37.54,37.54,0,0,1,7.32-1.27,11.35,11.35,0,0,0,6.11-1.78,4.23,4.23,0,0,1,2.26-.65c-2.82,4.55-7.39,6.54-12.3,8.36a8.52,8.52,0,0,1,1.41,6.93c-1,4-4.6,6.71-7.95,5.91-3.56-.85-5.44-4.42-4.58-8.68C267.83,136.15,267.84,136,267.9,135.37Zm9-.13c-.38-.35-1.08-1.55-2-1.71a2.74,2.74,0,0,0-3.45,2.41,3.06,3.06,0,0,0,2.82,3.13C275.78,139.06,276.94,137.72,276.9,135.24Z"/><path d="M254.48,135.93v-9.15C256,128.86,256.31,133.42,254.48,135.93Z"/><path d="M257.94,136c-1.79-2-2.11-6.71-.82-8.94Z"/></g><g id="headthing"><path d="M318.66,65.58c5.55,4.72,9.41,10.31,9.77,17.53.37,7.57.15,15.16,0,22.74a4.71,4.71,0,0,1-3.73,4.88c-6.79,2-13.55,3.4-20.75,3-4.75-.28-9.56.7-14.35,1.06-7.43.55-14.85,1.14-22.29,1.56-10.21.59-20.43,1.26-30.65,1.48-6.48.13-13-.58-19.47-.74-5.33-.13-10.67.17-16,0-6.21-.25-12.4-.81-18.6-1.29-1.21-.09-2.4-.51-3.61-.58a3,3,0,0,1-3.13-3,33.81,33.81,0,0,1-.33-3.62c-.06-5.69,0-11.38-.1-17.06-.14-6.83,1.77-12.67,7.45-16.91a4.33,4.33,0,0,1,4.1-.68c7.54,1.89,15.09,3.75,22.71,5.21a46.93,46.93,0,0,0,10.34.35c12.05-.42,24.1-.94,36.14-1.49,9.68-.44,19.36-.83,29-1.52,8.65-.61,17.23-1.81,25.33-5.19C313.58,70,316.48,68.54,318.66,65.58ZM240.25,83.51a30.91,30.91,0,0,0,0,4.92c.7,4.12-.39,7.07-4.74,8.2a1.62,1.62,0,0,0-.18.1c-2,.86-1.09,2.37-.7,3.63s1.42,1.66,2.75,1a27.46,27.46,0,0,1,3-1c.11,2.12.2,4.09.3,6l-4.18.38a2.16,2.16,0,0,0-2.06,2.51c0,1.38,1,1.55,2.13,1.59,1.48.06,2.95.15,4.25.21,1,1.4-1.08,3.92,1.84,4.18,2.44.22,3.65-1.08,4.16-4.31l8.32-.39c.17,1,.32,1.62.41,2.29.16,1.26.28,2.49,2.08,2.31s3.08-.63,3.31-2.6c.08-.72.11-1.45.16-2.18,2.13-.19,4.16-.23,6.14-.58s3.15-2.14,3.38-4.77c-1.56,0-3.09,0-4.63,0s-3.19.13-4.77.2c-.82-6.9-.67-7.21,4.87-10.55l.52-.33c2.28-1.38,2.94-2.9,2.57-5.59-.23-1.65-.88-1.95-2.28-1-1.95,1.28-4,2.47-5.89,3.67-.42-2-.31-4.1-1.3-5.38s-3.2-2-4.76-2.83C252.78,87,249.2,88,246.67,90.2c-.61-1.29-.9-2.66-1.73-3.45A34.21,34.21,0,0,0,240.25,83.51Z" fill="#fff"/><path d="M246.64,106.22c0-3,0-5.66,0-8.35a1.47,1.47,0,0,1,.42-1c2.42-1.81,4.88-3.57,7.34-5.34.91,2.93.8,3.26-1.68,4.94A8.73,8.73,0,0,0,250.42,98a9,9,0,0,0-1.86,3.81c-.2,1.71,1.09,2.33,2.7,1.6,1.1-.49,2.18-1,3.49-1.67v3.7Z" fill="#fff"/></g><g id="pubils"><path d="M234.89,135c3.54.13,4.62.82,4.51,2.48a2.84,2.84,0,0,1-2.74,2.74,3.05,3.05,0,0,1-2.78-3.18A6.28,6.28,0,0,1,234.89,135Z" fill="#fff"/><path d="M276.9,135.24c0,2.48-1.12,3.82-2.6,3.83a3.06,3.06,0,0,1-2.82-3.13,2.74,2.74,0,0,1,3.45-2.41C275.82,133.69,276.52,134.89,276.9,135.24Z" fill="#fff"/></g><g id="pants"><path d="M220.45,376.29c-.75,1.87-1.33,3.52-2.1,5.09a1.92,1.92,0,0,1-1.5.86c-3.27-.13-5.38,1.22-6.44,4.4-.63,1.91-1.61,3.7-2.49,5.67l-43.81-11.54,4.08-16.31Z" fill="#fff"/><path d="M206.88,394.17c-.27,2.12-1,2.72-3.11,2.18-11-2.87-22.16-5.42-33.16-8.41-2-.54-3.56-2.61-5.32-4l.39-.67Z" fill="#fff"/><path d="M308.38,338.65a2.76,2.76,0,0,0-2.13,2.35c-.86,4.86-1.78,9.71-2.52,14.58-.47,3.05-.26,6.25-1.05,9.19,1.53-.29,3.07.84,4.6,1.15,2.07-9.54,3.77-19.17,4.89-28.92h-.84C310.85,337.72,310,338.13,308.38,338.65Z" fill="#fff"/><path d="M302.68,364.77a.64.64,0,0,1,0,.07c-4.83,17.61-9.86,35.16-14.84,52.72a14.81,14.81,0,0,1-.58,1.52c-.32-5-.41-9.84-.27-14.71,0-1.7-.53-2.35-2.11-2.75q-29-7.42-57.94-14.95c-2.81-.73-5.63-1.44-8.45-2.1-3.51-.83-4.8-.18-6.22,3-1.61,3.65-3.24,7.3-4.81,11-1.22,2.83-2.36,5.7-3.62,8.75l77.58,18.8c-.84,13.56-1.68,27-2.51,40.36a3.5,3.5,0,0,0,.84-1.63c5.53-19.09,11-38.19,16.61-57.27,4.05-13.8,7.9-27.64,10.94-41.65C305.75,365.61,304.21,364.48,302.68,364.77Z" fill="#fff"/><path d="M156.22,322.7l63.63,15c-4.37,11.46-6.87,23-3.83,35.43-2.68-.59-5.15-1.11-7.6-1.68-17.06-3.93-34.1-7.9-51.18-11.76a4.7,4.7,0,0,1-3.73-3.41c-2.22-6.2-2.13-12.54-1-18.84C153.45,332.55,154.94,327.77,156.22,322.7Z" fill="#fff"/><path d="M289.38,404.48c-.22-.17-.3-.2-.3-.24-.42-3.75-.43-3.72-4.26-4.7l-63.2-16.33c-.45-.12-.88-.31-1.51-.53l2.92-7.17c2.51-6.2,5.05-12.39,7.51-18.61.52-1.32,1-1.84,2.63-1.47q32.13,7.29,64.29,14.41c.45.1.88.29,1.57.52C295.81,381.76,292.6,393.08,289.38,404.48Zm-60-37.7c21.72,3,43.38,5.73,65.28,6.39,0-1.23.5-2.44-1.44-2.57-6.69-.47-13.38-1-20.05-1.67A74.07,74.07,0,0,1,260.83,367c-8.2-2.31-16.25-5.11-24.37-7.69-1.19-.38-2.4-.68-3.72-1l-.75,2.8,19.16,5.56a1.84,1.84,0,0,1-1.26.27c-5.92-.7-11.85-1.31-17.75-2.18C230.25,364.46,229.76,365.25,229.41,366.78Zm-1.72,5c.57.17,1.13.37,1.71.52,16,4.15,31.86,8.66,48.34,10.44,4,.44,8,1.13,12.07,1.63.44.05.93-.39,1.39-.61a8.23,8.23,0,0,0-1-1,2.69,2.69,0,0,0-1-.29q-29.34-6.28-58.67-12.58C228.91,369.55,228,370,227.69,371.75Zm60.95,20c-.86-.15-1.66-.27-2.45-.42-11.29-2.13-22.67-3.87-33.82-6.54-8.32-2-16.36-5.14-24.49-7.85-1.7-.57-2.52-.21-2.73,1.63,3.51,1.24,7,2.33,10.37,3.68,16.38,6.51,33.55,9.33,50.94,11.13C287.59,393.54,288.72,393.77,288.64,391.79Zm-20.88-17.5,0,.29c8.07,1.18,16.15,2.33,24.21,3.56,1.62.25,1.67-.48,1.49-1.71Z" fill="#fff"/><path d="M204.87,455.5c-.45-15.33-.9-30.55-1.36-46.14l75.74,18.34c-.95,15.23-1.89,30.29-2.85,45.5Zm7.39-36.4a9,9,0,0,0-.12.92c.31,10.84.59,21.67,1,32.5a2.39,2.39,0,0,0,1.45,1.67c3.17.95,6.39,1.71,9.6,2.53l40.3,10.35a4.53,4.53,0,0,0,.24-.83c.93-10.86,1.84-21.72,2.81-32.58.12-1.34-.59-1.52-1.6-1.76-9.41-2.22-18.8-4.49-28.2-6.74Z" fill="#fff"/><path d="M299.51,368.21,232,353.1l3.32-11.78,64.19,15.11c.76-1.78,1.49-3.51,2.22-5.23C301.07,356.85,301.85,362.68,299.51,368.21Z" fill="#fff"/><path d="M222,338.23l5,1.14c-1.06,3.95-2.28,7.79-3.1,11.71a63.6,63.6,0,0,0-.9,17.16c.12,1.95-.84,4-1.3,6-2.26,0-3.38-.58-3.86-2.7-2.42-10.57-.41-20.66,3.09-30.61C221.14,340.07,221.52,339.28,222,338.23Z" fill="#fff"/><path d="M233.61,341.06c-2.73,8.05-5.4,15.88-8.06,23.72l-.63-.15c0-2.1-.1-4.2,0-6.28a39.39,39.39,0,0,1,.75-6.24c.72-3.22,1.6-6.42,2.6-9.56.85-2.69,1-2.66,3.68-2C232.35,340.63,232.72,340.77,233.61,341.06Z" fill="#fff"/><path d="M265.45,433.89c-.29,3.33-.51,6.44-.85,9.53a2.61,2.61,0,0,1-1,1.41,15.93,15.93,0,0,1-8.61,3.78,29.6,29.6,0,0,1-19.2-3.57c-7.11-4.17-10-13.27-9.18-20.4Z" fill="#fff"/><path d="M264.33,447.12c-.5,6-1,11.56-1.47,17.41l-47.31-12.16,8.71-22.22c1.71,9.2,6.39,15.89,15.32,18.89C247.87,451.82,256.16,452.19,264.33,447.12Z" fill="#fff"/><path d="M224.41,424.1l-9,23L215,447c-.28-8.33-.56-16.66-.84-25.31Z" fill="#fff"/></g><g id="belt"><path d="M154.55,320.2c.56-5.81,1.08-11.25,1.63-17l148.23,35.87-6.08,15Zm5.49-.4,135.18,32.27c.57-4.62,1.12-9,1.68-13.58l-135.37-33C161,310.38,160.54,315,160,319.8Z" fill="#fff"/><path d="M295.72,339.25c-.2,1.84-.39,3.49-.6,5.44-3.25-.47-6.37-.87-9.47-1.38-17.48-2.9-34.85-6.3-52-10.9a210.65,210.65,0,0,1-32.2-11c-3.53-1.6-3.53-1.6-2.32-5.71Z" fill="#fff"/><path d="M196.66,327.5l1.34-6.35c30.92,13.51,63.74,19.21,96.86,24.68-.05.8-.07,1.59-.16,2.37s-.26,1.58-.44,2.6Z" fill="#fff"/><path d="M183.58,324.37,161.18,319c.29-2.94.58-5.74.85-8.42l22.41,8.05Z" fill="#fff"/><path d="M185.36,312.36c-.24,1.61-.44,3-.69,4.74a27,27,0,0,1-3.53-.77c-5.83-2.11-11.63-4.31-17.47-6.43-1.49-.54-1.82-1.4-1-3Z" fill="#fff"/><path d="M192.27,314,198,315.5l-2.34,11.73L190.23,326C190.91,322,191.58,318.08,192.27,314Z" fill="#fff"/><path d="M186.36,312.66l4.88,1.15c-.67,3.93-1.31,7.75-2,11.84l-4.61-1Z" fill="#fff"/></g><g id="shirt"><path d="M350.07,277.89q1.32,6,2.65,12.05c.2.92.44,1.82.77,3.12-3-.35-5.75-.61-8.46-1.06-.64-.1-1.23-.79-1.75-1.3-4.85-4.75-6.45-11-7.81-17.3-.23-1.06-.38-2.13-.55-3.2,0-.11.08-.24.18-.5a37.8,37.8,0,0,0,29.18-1.3c4.24-2,8.13-4.43,10.78-8.49-1.11.91-2.2,1.86-3.34,2.74-11.43,8.82-23.86,10.43-37.28,5.24a31.86,31.86,0,0,0-6.66-1.74c-5.87-.9-9.75-4.38-12.53-9.33a36,36,0,0,1-4.09-13.73c-1.18-10.72-.92-21.37,2.27-31.8.06-.19.07-.4.15-.59,3.14-7.95,2.37-6.9,10.08-7.81,7.49-.88,14,1.94,20.38,5,13.31,6.4,24,15.7,30.24,29.4,2.88,6.28,4.16,13,5,19.77,1.05,8.06,2.06,16.12,3.19,24.16a3.87,3.87,0,0,1-1.59,4c-7.55,5.61-16.21,7.54-25.41,7.6a1.88,1.88,0,0,1-1.31-1.1c-.49-1.39-.77-2.86-1.17-4.4,3.38-.46,6.72-.8,10-1.39a28.39,28.39,0,0,0,12.36-4.84,39.9,39.9,0,0,0,5-5,1.94,1.94,0,0,0,.28-1.44c-6.95,9.69-17.33,10.6-27.75,11.53-1-2.93-1.94-5.61-2.87-8.29.05-.59.08-1.18.14-2,.88,0,1.69,0,2.49,0a41.32,41.32,0,0,0,15-3,21.13,21.13,0,0,0,11.05-9.41,7.56,7.56,0,0,0,.46-1.68c-7,11.45-18.23,12.75-29.88,13.33.15.82.26,1.54.42,2.25C349.77,277.59,350,277.73,350.07,277.89Z" fill="#fff"/><path d="M131,203.21a15.25,15.25,0,0,1,.81-2c4.38-7.55,8.57-15.22,13.23-22.59,7.24-11.48,22.08-18.88,38.14-11.78a4,4,0,0,1,1.3.93c1.89,2,3.74,4.1,5.61,6.16-5.83,6.88-8.87,15.32-12,23.65-3,8-5.68,16.19-8.5,24.3l-.53,1.49c-13.48-3.29-23.58-10.47-28.72-23.73,0,9.3,14.3,22,28.25,25.06l-.46,1.78c-.26,0-.44,0-.51-.05-1.78-1.82-3.38-1.34-5.49-.22-4.79,2.53-10,2.18-15.07.92-6.09-1.5-11.6-4.12-15.47-9.37-3-4-2.67-8.51-1.71-13,.12-.58.75-1,1.15-1.57a20.62,20.62,0,0,0-.23,2.82c.28,8.34,8.15,15.58,15.16,17.8.37.12,1.05.06,1.22-.18,1.47-2,2.86-4.15,4.44-6.48-9.39-2-12.69-9.45-16.59-16.37a29.26,29.26,0,0,0,5.39,10.31,19.21,19.21,0,0,0,9.86,6.64c-1.11,1.67-2,3.12-3,4.45a1.85,1.85,0,0,1-1.63.51c-7.1-3.08-12.27-7.83-13.58-15.89A31.15,31.15,0,0,0,131,203.21Z" fill="#fff"/><path d="M223.17,292.45c-3.83-2.85-8-2.7-12.33-2.12-1.47.2-3-.21-5.13-.39,1.7-2.91,3-5.18,4.33-7.4,5.61-9.2,11.22-18.46,19.06-26,6.56-6.27,13.71-11.91,20.32-18.12,8.55-8,16.82-16.31,25.21-24.5a5.51,5.51,0,0,0,1.18-1.38c1.53-3.16,3.85-3.62,7.07-2.65s6.49,1.31,9.71,2.06a6.84,6.84,0,0,1,2.64,1.35c1.28,1,1.44,2.05.25,3.58a225.1,225.1,0,0,1-45.38,43.69c-7.6,5.54-13.1,13.08-18.72,20.46C228.59,284.74,226,288.54,223.17,292.45Zm.61-16.74-.56,4c1.71,1.19,2.24,1,2.74-.9a7.83,7.83,0,0,0,.4-2.18c0-1.38.63-1.85,1.9-2.07,1.61-.27,3.18-.8,5-1.27-1.66-3.51-4.29-1.3-6.29-1.64-.55-5-.55-5-3-5.57v4c0,3.08,0,3.08-2.93,4-1.7.5-1.84,1-.73,2.75Zm18.52-12.86a28.45,28.45,0,0,0,0-3.1,17.5,17.5,0,0,0-.61-2.42,10.24,10.24,0,0,1-1.79.82,4.4,4.4,0,0,1-2.33.18,24.52,24.52,0,0,1-2.48-1.72,6.62,6.62,0,0,0-1.93-.39l-.23.64,4,3.73-9.41,4.51c2.66,1.55,5,.75,7.3,0s4.13-2.57,6.77-1.94C241.9,263.23,242.31,262.85,242.3,262.85Zm22-29.93a5.29,5.29,0,0,0,.9-.66c1.71-2.3,3.62-2.55,6.12-1.08a6.13,6.13,0,0,0,3.89.48c1.77-.3,2.14-1.74.76-2.85-2-1.63-4.25-3-6.71-4.71-.42,3.57,3,3.07,4,5.11-2.6-1.16-4.89-3.69-7.66-1.12A4.52,4.52,0,0,0,264.26,232.92ZM250.15,252.1l0,.29a8.93,8.93,0,0,1-1.64-.51,28.57,28.57,0,0,1-2.6-1.58,2.17,2.17,0,0,0-3.09.26c-1.14,1.18-2.74,2.14-2.37,4.52.88-.56,1.44-.9,2-1.26,2.5-1.7,3.3-1.83,5.54.17,1.74,1.56,3,.83,4.44-.19,1.18-.85,1.26-1.7,0-2.53-2.22-1.5-4.45-3-6.86-4.56-.14.57-.42,1.14-.29,1.26C246.85,249.38,248.51,250.73,250.15,252.1Zm9.23-19.86c-.75,4.52-1.43,9-2.25,13.4-.22,1.19-.25,2,1.08,2.31s1.84-.6,2-1.68q.69-5.84,1.25-11.68C261.57,233.06,260.56,232.48,259.38,232.24Zm21.91-3.49.23-.61L270.88,220a2.14,2.14,0,0,0,.56,3.25,40.75,40.75,0,0,0,4.4,3.27A45.62,45.62,0,0,0,281.29,228.75Zm-34.1,14.45c-1.14,1-1.2,2,.2,2.9,2.1,1.37,4.11,2.87,6.26,4.14a16.17,16.17,0,0,0,3.27,1.12l.15-.5Zm18.52-5.51-3.47,1.61.05.72a27.94,27.94,0,0,0,3.3,0A16.28,16.28,0,0,0,265.71,237.69Zm-35.5,21.69.08.55a21.1,21.1,0,0,0,2.76-.22,9.58,9.58,0,0,0,0-1.82Z" fill="#fff"/><path d="M231.31,242l-11.84,10.63c-1.09-1.7-2.34-3.34-3.28-5.15Q204,224,191.87,200.52c-1-1.92-1.89-3.89-2.82-5.84s-.6-3.13,1.6-3.47a21.13,21.13,0,0,1,5.83.13c2.81.35,5.58,1.07,8.39,1.4,1.68.19,2.37,1.06,3,2.45q10.19,21.08,20.52,42.08C229.24,238.89,230.31,240.38,231.31,242Z" fill="#fff"/><path d="M198.33,288.68c3.15-5.14,6.13-10,9.15-14.9,7-11.3,16.29-20.59,26.29-29.18,12.48-10.71,23.42-23,35-34.6,1.74-1.75,3.31-2.56,5.65-1.7a24.84,24.84,0,0,0,3,.67,40.49,40.49,0,0,1-2.72,3.42c-7.68,7.64-15.28,15.38-23.17,22.8-6.91,6.5-14.2,12.58-21.27,18.9-6.79,6.07-11.88,13.52-16.77,21.09-2.64,4.09-5.11,8.3-7.57,12.51a1.87,1.87,0,0,1-2.25,1.05A41,41,0,0,0,198.33,288.68Z" fill="#fff"/><path d="M236.14,238.21l-4,3.28C223,226.16,216,209.94,208.37,193.94c3.62-.56,6,.67,7.43,3.56q10.09,20.12,20.26,40.19A2.08,2.08,0,0,1,236.14,238.21Z" fill="#fff"/><path d="M200.29,291.85c2.48.73,4.82,1.36,7.1,2.17a1.86,1.86,0,0,1,.44,1.65c-3.45,3.6-7,7.16-10.58,10.57a2.84,2.84,0,0,1-2.74.26,2.93,2.93,0,0,1-.85-2.66c1.26-3.6,2.7-7.15,4.28-10.63C198.24,292.55,199.45,292.31,200.29,291.85Z" fill="#fff"/><path d="M150.4,300.48c6.74-25.12,13-49.59,19.92-73.9a261.64,261.64,0,0,1,15.46-42c1.55-3.25,3.65-6.24,5.53-9.39,3.63,2.52,6.7,4.84,9.95,6.87,15.21,9.5,31.67,15.58,49.58,17.15,5.43.48,11-.24,16.43-.12a56.3,56.3,0,0,1,9,1.12c8.31,1.55,16.63,3.09,24.88,4.9,5.29,1.17,5.34,1.38,5.49,6.73q1.62,58.85,3.17,117.68c0,1.22,0,2.44,0,3.66,0,3.1-2,4.61-5.14,3.86l-24.85-6Q218.41,316.17,157,301.33A61.42,61.42,0,0,0,150.4,300.48Zm5.83-2.05a7.77,7.77,0,0,0,1.15.51c7,1.94,14,3.91,21.09,5.77,3.85,1,7.94,1.39,11.59,2.86,4.37,1.76,8.17,2.13,12.22-.66s8.07-5.92,9.37-11c.55-2.15,1.52-2.83,3.46-2.57,1.39.18,2.77.51,4.16.78a3.15,3.15,0,0,1,2.49,2.62c1.5,5.31-2.44,11.89-7.82,12.89-2.68.5-5.4.76-8.56,1.19,32.26,8.81,64.23,16.8,96.62,23.57.23-6.56.59-12.92.56-19.28,0-1.3-.1-3.45-2.39-3.84Q281,308,261.76,304.69c-3-.52-6.07-1.07-9-1.59.06-1.37.11-2.43.16-3.63l-27.06-4.07a5.37,5.37,0,0,1,.3-1c.66-1.18,1.29-2.39,2.05-3.51,8.64-12.81,19.43-23.69,31.15-33.6a401.45,401.45,0,0,0,36.24-34.72,6.71,6.71,0,0,0,2.1-5.7c-.33-3.15-1.68-5.14-4.86-5.84s-6.24-1.21-9.35-1.89c-4.07-.89-8.14-1.79-12.19-2.81-2.2-.55-3.86-.42-5.44,1.61-2.19,2.83-4.84,5.3-7.23,8a2.13,2.13,0,0,1-2.81.69c-3.9-1.7-7.85-3.29-11.78-4.94-.44-.19-.83-.49-1.77-1A75.33,75.33,0,0,0,265,205.39c-1.6-.53-3.27-1.19-4.81-1-6.89,1-13.74,2.24-20.62,3.3a5.37,5.37,0,0,1-3.31-.35c-4.35-2.52-8.54-5.36-11.5-9.52-1.47-2.08-3.31-2.46-6-2.56,10.11,11.69,22.65,18.88,36.88,23.76-1.72,1.83-3.27,3.53-4.87,5.19-2.26,2.34-4.53,4.67-6.85,6.94a2.18,2.18,0,0,1-1.58.54c-7.56-.95-13-6.48-14.18-14.45l16.44,4.53c-6.25-3.39-12.21-6.56-18.1-9.87a6.16,6.16,0,0,1-2.36-2.59c-2.18-4.51-4.16-9.11-6.32-13.62a3.36,3.36,0,0,0-1.93-1.64c-3.68-.9-7.38-1.74-11.11-2.36A130.83,130.83,0,0,0,191.74,190a4.78,4.78,0,0,0-4.69,6.75c3.72,8.18,7.36,16.42,11.54,24.37,6,11.38,12.41,22.52,18.39,33.3l-22.7,33.89c-5.71-2.39-11.69-4.91-17.68-7.41-4.45-1.87-4.63-1.8-7,2.21a3.28,3.28,0,0,1-.46.5L160.78,281Zm122.4-53.94c1.11,4.87,2.58,9.69,5.83,13.72,2.31,2.85,4.84,3.12,7.77.86,3.42-2.64,5.65-6.21,7.79-10.21-2.52,1.85-4.7,3.64-7.07,5.14-4,2.54-5.65,2.3-8.64-1.42C282.25,250,280.51,247.2,278.63,244.49Zm-99.46-22.43a31.7,31.7,0,0,0,1,4.39,76.59,76.59,0,0,0,3.94,9.48c1.34,2.48,3.26,3,5.46,1.84,4.67-2.36,7.21-6.6,9.59-11-2.35,1.63-4.5,3.48-6.84,5-3.1,2-4.18,1.89-6.55-1S181.47,225.16,179.17,222.06ZM291,233.16c-2.82,3.47-5.36,6.55-7.83,9.68a2,2,0,0,0-.31,1.65,40.64,40.64,0,0,0,3.37,6.36,4,4,0,0,0,3.17,1.29,8,8,0,0,0,6.52-4.57,2.89,2.89,0,0,0,.16-2.1C294.54,241.45,292.84,237.48,291,233.16Zm-99.69-22c-2.54,2.47-5.38,5.09-8,7.9a3.34,3.34,0,0,0-.74,2.89,27.59,27.59,0,0,0,3.45,6.13,3.91,3.91,0,0,0,3.14,1.3,8.55,8.55,0,0,0,6.17-4.5c1.22-2.1-.27-3.6-1.2-5.19C192.52,216.87,190.5,214.21,191.35,211.14Z" fill="#fff"/><path d="M282.39,252c5.1,5.62,5.1,5.62,12.95,1.92a12.49,12.49,0,0,1-5.24,5.24,3.14,3.14,0,0,1-4-.82c-1.53-1.9-2.83-4-4.23-6Z" fill="#fff"/><path d="M181.86,227.82c1,1.23,2,2.49,3,3.69,2.8,3.21,4.22,3.42,7.88,1.26.57-.34,1.14-.68,1.7-1l.39.47c-1.8,1.5-3.52,3.14-5.44,4.48a2.73,2.73,0,0,1-4.22-.92c-1.42-2.47-2.6-5.09-3.88-7.65Z" fill="#fff"/><path d="M290.75,235.12c1.56,3.69,3,6.94,4.28,10.26a2.92,2.92,0,0,1-.38,2.42,10.65,10.65,0,0,1-3,2.61c-2.51,1.43-4.05,1-5.7-1.36a13.48,13.48,0,0,1-.74-1.21c-1.84-3.41-1.82-3.55.57-6.51C287.33,239.39,288.89,237.44,290.75,235.12Z" fill="#fff"/><path d="M189.94,214.12c1.41,2.51,2.7,4.95,4.13,7.3a3.06,3.06,0,0,1-.35,4.06,13.52,13.52,0,0,1-1,1c-3.45,3-5.23,2.72-7.56-1.21-.14-.23-.26-.47-.38-.71-2.11-4.14-2.12-4.3,1.41-6.46a10.79,10.79,0,0,0,2.07-1.93C188.87,215.55,189.38,214.83,189.94,214.12Z" fill="#fff"/><path d="M160.84,298.88l-3.4-1,3.78-14.57,7,2.17C165.74,290,163.36,294.32,160.84,298.88Z" fill="#fff"/><path d="M316.71,178.07c.46.35.79.57,1.11.83,3.29,2.68,3.36,3.37,1,6.86-4.1,6.19-8.15,12.41-12.07,18.37l-31-6.35C291.11,194.39,305.31,189.28,316.71,178.07Z" fill="#fff"/><path d="M242.13,317.36l-22.27-5.87c.73-.6,1.4-.89,1.62-1.39,1.64-3.71,4.7-3.2,7.81-2.81a43.81,43.81,0,0,0,7.71.36l-11.67-3.71.42-5.36L249.2,302C246.82,307.19,244.52,312.19,242.13,317.36Z" fill="#fff"/><path d="M250.2,308.68l1.27-2.66,50.23,8c-.23,6.42-.44,12.73-.67,19.25l-56.39-12.85,1.4-3,37.54,7.64.09-.33L248,314.1c.08-1.64.85-1.86,2.06-1.68,7.16,1.06,14.33,2.06,21.49,3.1s14,2,21.12,2.71Z" fill="#fff"/><path d="M179.1,290.83l12.79,4.93c-.48,2.08-1.7,2.54-3.58,2.49-4.94-.13-9.87,0-14.2,0L189.86,301l-.32,3.77-24.21-6c.47-.9.86-1.72,1.3-2.5,2-3.6,4.07-7.18,6.08-10.78.46-.83.85-1.43,2-1,6.22,2.44,12.47,4.82,18.7,7.23.17.06.3.23.57.46l-1.21,1.88-13.54-3.6Z" fill="#fff"/><path d="M308.59,220.1c0-4.43,0-8.86,0-13.29a3.82,3.82,0,0,1,.59-1.9c2.55-4.23,5.1-8.44,7.73-12.61,1.52-2.4,3.17-4.7,5.07-7.5a23.91,23.91,0,0,1,1.15,3.87c.36,3.48.56,7,.81,10.49.1,1.24-.37,1.9-1.73,1.83-.8,0-1.62.25-2.42.23-3.62-.09-5.65,2-6.7,5.12-1.51,4.52-2.83,9.11-4.23,13.67Z" fill="#fff"/><path d="M325.54,269.13a2.08,2.08,0,0,0-1.13-1.54c-7.29-2.79-11.12-8.51-13.4-15.59-.28-.88-.6-1.74-1-2.93.26,9.37.57,18.38.76,27.39q.6,28.67,1.08,57.34a6.94,6.94,0,0,1-.34,2.89,3.07,3.07,0,0,1-.17.31h.84c.2-1.75.39-3.51.55-5.27a29.61,29.61,0,0,1,3.73-11.63,63.64,63.64,0,0,0,4.45-9.55c1.94-5.61,4.43-11.26,5-17.05C326.61,285.46,325.78,277.26,325.54,269.13Z" fill="#fff"/></g></svg>